<?xml version="1.0" standalone="no"?>
<!DOCTYPE svg PUBLIC "-//W3C//DTD SVG 20010904//EN"
 "http://www.w3.org/TR/2001/REC-SVG-20010904/DTD/svg10.dtd">
<svg version="1.0" xmlns="http://www.w3.org/2000/svg"
 width="512.000000pt" height="512.000000pt" viewBox="0 0 512.000000 512.000000"
 preserveAspectRatio="xMidYMid meet">

<g transform="translate(0.000000,512.000000) scale(0.100000,-0.100000)"
fill="#000000" stroke="none">
<path d="M1230 4804 c-14 -2 -59 -9 -100 -15 -109 -16 -250 -64 -370 -125
-447 -228 -732 -698 -757 -1249 -19 -423 127 -819 451 -1223 257 -323 526
-577 1346 -1277 212 -180 448 -383 525 -450 77 -67 155 -129 172 -139 38 -19
89 -21 123 -3 21 11 593 497 1090 926 564 487 889 823 1100 1139 221 330 323
672 307 1027 -32 696 -469 1239 -1107 1372 -114 24 -392 24 -498 0 -271 -62
-488 -190 -688 -407 -69 -75 -163 -204 -215 -295 -24 -41 -46 -75 -49 -75 -3
0 -25 34 -49 76 -68 119 -179 261 -287 365 -186 179 -377 283 -616 335 -70 15
-326 27 -378 18z m355 -323 c271 -71 517 -277 689 -576 48 -85 114 -238 136
-319 33 -122 169 -167 253 -82 23 23 40 58 60 122 67 210 193 420 347 575 189
191 396 291 634 306 601 36 1082 -440 1113 -1102 20 -439 -177 -836 -662
-1333 -244 -251 -411 -401 -1143 -1026 l-453 -387 -137 119 c-75 65 -310 267
-522 447 -939 803 -1254 1134 -1449 1524 -197 392 -200 824 -8 1196 153 295
442 505 762 555 94 14 288 5 380 -19z"/>
</g>
</svg>
